<mxfile host="app.diagrams.net" agent="Mozilla/5.0 (Windows NT 10.0; Win64; x64) AppleWebKit/537.36 (KHTML, like Gecko) Chrome/141.0.0.0 Safari/537.36 Edg/141.0.0.0" version="28.2.7">
  <diagram name="Página-1" id="DkIzLOAUKAePPZX2fdhb">
    <mxGraphModel dx="1668" dy="2155" grid="1" gridSize="10" guides="1" tooltips="1" connect="1" arrows="1" fold="1" page="1" pageScale="1" pageWidth="827" pageHeight="1169" math="0" shadow="0">
      <root>
        <mxCell id="0" />
        <mxCell id="1" parent="0" />
        <mxCell id="N4B7eghxR8Ot4XVqMV-S-2" value="&lt;div style=&quot;&quot;&gt;&lt;span id=&quot;docs-internal-guid-fba5bfa9-7fff-8d6d-b3f3-67d93a1ee520&quot; style=&quot;&quot;&gt;&lt;span style=&quot;background-color: transparent; font-variant-numeric: normal; font-variant-east-asian: normal; font-variant-alternates: normal; font-variant-position: normal; font-variant-emoji: normal; vertical-align: baseline; white-space: pre-wrap;&quot;&gt;&lt;font face=&quot;Helvetica&quot; style=&quot;color: light-dark(rgb(27, 28, 29), rgb(255, 0, 0)); font-size: 11px;&quot;&gt;Diagrama de Atividade da Sprint 2 (Interação Master/Worker)&lt;/font&gt;&lt;/span&gt;&lt;/span&gt;&lt;/div&gt;" style="swimlane;childLayout=stackLayout;resizeParent=1;resizeParentMax=0;startSize=80;html=1;strokeColor=default;align=center;verticalAlign=middle;fontFamily=Helvetica;fontSize=12;fontColor=default;fontStyle=1;fillColor=default;" parent="1" vertex="1">
          <mxGeometry x="120" y="-240" width="590" height="900" as="geometry">
            <mxRectangle x="120" y="-240" width="440" height="30" as="alternateBounds" />
          </mxGeometry>
        </mxCell>
        <mxCell id="N4B7eghxR8Ot4XVqMV-S-3" value="&lt;font style=&quot;color: light-dark(rgb(1, 244, 49), rgb(0, 255, 0));&quot;&gt;Worker &lt;/font&gt;" style="swimlane;startSize=20;html=1;strokeColor=default;align=center;verticalAlign=middle;fontFamily=Helvetica;fontSize=12;fontColor=default;fontStyle=1;fillColor=default;" parent="N4B7eghxR8Ot4XVqMV-S-2" vertex="1">
          <mxGeometry y="80" width="310" height="820" as="geometry" />
        </mxCell>
        <mxCell id="B70QrysTqTV6Nruh_P4p-25" style="edgeStyle=none;curved=1;rounded=0;orthogonalLoop=1;jettySize=auto;html=1;exitX=0.5;exitY=1;exitDx=0;exitDy=0;entryX=0.5;entryY=0;entryDx=0;entryDy=0;fontSize=12;startSize=8;endSize=8;" edge="1" parent="N4B7eghxR8Ot4XVqMV-S-3" target="B70QrysTqTV6Nruh_P4p-2">
          <mxGeometry relative="1" as="geometry">
            <mxPoint x="166.5" y="90" as="sourcePoint" />
          </mxGeometry>
        </mxCell>
        <mxCell id="B70QrysTqTV6Nruh_P4p-1" value="&lt;font style=&quot;font-size: 10px;&quot;&gt;Início: Worker&lt;/font&gt;" style="ellipse;whiteSpace=wrap;html=1;aspect=fixed;" vertex="1" parent="N4B7eghxR8Ot4XVqMV-S-3">
          <mxGeometry x="131.5" y="20" width="70" height="70" as="geometry" />
        </mxCell>
        <mxCell id="B70QrysTqTV6Nruh_P4p-26" style="edgeStyle=none;curved=1;rounded=0;orthogonalLoop=1;jettySize=auto;html=1;fontSize=12;startSize=8;endSize=8;" edge="1" parent="N4B7eghxR8Ot4XVqMV-S-3" source="B70QrysTqTV6Nruh_P4p-2" target="B70QrysTqTV6Nruh_P4p-3">
          <mxGeometry relative="1" as="geometry" />
        </mxCell>
        <mxCell id="B70QrysTqTV6Nruh_P4p-2" value="Obtém Master (Home/Current)" style="rounded=1;whiteSpace=wrap;html=1;" vertex="1" parent="N4B7eghxR8Ot4XVqMV-S-3">
          <mxGeometry x="109" y="110" width="115" height="50" as="geometry" />
        </mxCell>
        <mxCell id="B70QrysTqTV6Nruh_P4p-27" style="edgeStyle=none;curved=1;rounded=0;orthogonalLoop=1;jettySize=auto;html=1;fontSize=12;startSize=8;endSize=8;" edge="1" parent="N4B7eghxR8Ot4XVqMV-S-3" source="B70QrysTqTV6Nruh_P4p-3" target="B70QrysTqTV6Nruh_P4p-4">
          <mxGeometry relative="1" as="geometry" />
        </mxCell>
        <mxCell id="B70QrysTqTV6Nruh_P4p-3" value="Tenta Conexão TCP (socket.create_connection)" style="rounded=1;whiteSpace=wrap;html=1;" vertex="1" parent="N4B7eghxR8Ot4XVqMV-S-3">
          <mxGeometry x="109" y="170" width="120" height="60" as="geometry" />
        </mxCell>
        <mxCell id="B70QrysTqTV6Nruh_P4p-6" style="edgeStyle=none;curved=1;rounded=0;orthogonalLoop=1;jettySize=auto;html=1;fontSize=12;startSize=8;endSize=8;entryX=0.5;entryY=0;entryDx=0;entryDy=0;" edge="1" parent="N4B7eghxR8Ot4XVqMV-S-3" source="B70QrysTqTV6Nruh_P4p-4" target="B70QrysTqTV6Nruh_P4p-11">
          <mxGeometry relative="1" as="geometry">
            <mxPoint x="104" y="370" as="targetPoint" />
          </mxGeometry>
        </mxCell>
        <mxCell id="B70QrysTqTV6Nruh_P4p-7" value="SIM" style="edgeLabel;html=1;align=center;verticalAlign=middle;resizable=0;points=[];fontSize=12;" vertex="1" connectable="0" parent="B70QrysTqTV6Nruh_P4p-6">
          <mxGeometry x="-0.1216" y="1" relative="1" as="geometry">
            <mxPoint as="offset" />
          </mxGeometry>
        </mxCell>
        <mxCell id="B70QrysTqTV6Nruh_P4p-8" style="edgeStyle=none;curved=1;rounded=0;orthogonalLoop=1;jettySize=auto;html=1;fontSize=12;startSize=8;endSize=8;entryX=0.5;entryY=0;entryDx=0;entryDy=0;" edge="1" parent="N4B7eghxR8Ot4XVqMV-S-3" source="B70QrysTqTV6Nruh_P4p-4" target="B70QrysTqTV6Nruh_P4p-10">
          <mxGeometry relative="1" as="geometry">
            <mxPoint x="244" y="370" as="targetPoint" />
          </mxGeometry>
        </mxCell>
        <mxCell id="B70QrysTqTV6Nruh_P4p-9" value="NÃO" style="edgeLabel;html=1;align=center;verticalAlign=middle;resizable=0;points=[];fontSize=12;" vertex="1" connectable="0" parent="B70QrysTqTV6Nruh_P4p-8">
          <mxGeometry x="0.1719" y="-1" relative="1" as="geometry">
            <mxPoint x="1" as="offset" />
          </mxGeometry>
        </mxCell>
        <mxCell id="B70QrysTqTV6Nruh_P4p-4" value="Conectou?" style="rhombus;whiteSpace=wrap;html=1;" vertex="1" parent="N4B7eghxR8Ot4XVqMV-S-3">
          <mxGeometry x="129" y="240" width="80" height="80" as="geometry" />
        </mxCell>
        <mxCell id="B70QrysTqTV6Nruh_P4p-10" value="Espera RECONNECT_DELAY e Tenta Novamente" style="rounded=1;whiteSpace=wrap;html=1;" vertex="1" parent="N4B7eghxR8Ot4XVqMV-S-3">
          <mxGeometry x="44" y="350" width="120" height="60" as="geometry" />
        </mxCell>
        <mxCell id="B70QrysTqTV6Nruh_P4p-11" value="Envia Apresentação {&quot;WORKER&quot;: &quot;ALIVE&quot;}" style="rounded=1;whiteSpace=wrap;html=1;" vertex="1" parent="N4B7eghxR8Ot4XVqMV-S-3">
          <mxGeometry x="174" y="350" width="120" height="60" as="geometry" />
        </mxCell>
        <mxCell id="B70QrysTqTV6Nruh_P4p-32" style="edgeStyle=none;curved=1;rounded=0;orthogonalLoop=1;jettySize=auto;html=1;fontSize=12;startSize=8;endSize=8;" edge="1" parent="N4B7eghxR8Ot4XVqMV-S-3" source="B70QrysTqTV6Nruh_P4p-19" target="B70QrysTqTV6Nruh_P4p-20">
          <mxGeometry relative="1" as="geometry" />
        </mxCell>
        <mxCell id="B70QrysTqTV6Nruh_P4p-19" value="Processa Tarefa (process_task)" style="rounded=1;whiteSpace=wrap;html=1;" vertex="1" parent="N4B7eghxR8Ot4XVqMV-S-3">
          <mxGeometry x="106.5" y="420" width="120" height="60" as="geometry" />
        </mxCell>
        <mxCell id="B70QrysTqTV6Nruh_P4p-20" value="Envia Resultado (STATUS: OK/NOK)" style="rounded=1;whiteSpace=wrap;html=1;" vertex="1" parent="N4B7eghxR8Ot4XVqMV-S-3">
          <mxGeometry x="106.5" y="490" width="120" height="60" as="geometry" />
        </mxCell>
        <mxCell id="B70QrysTqTV6Nruh_P4p-84" value="Worker Recebe {&quot;TASK&quot;: &quot;REDIRECT&quot;}" style="rounded=1;whiteSpace=wrap;html=1;" vertex="1" parent="N4B7eghxR8Ot4XVqMV-S-3">
          <mxGeometry x="104" y="560" width="120" height="60" as="geometry" />
        </mxCell>
        <mxCell id="B70QrysTqTV6Nruh_P4p-87" style="edgeStyle=none;curved=1;rounded=0;orthogonalLoop=1;jettySize=auto;html=1;fontSize=12;startSize=8;endSize=8;exitX=0;exitY=0;exitDx=0;exitDy=0;entryX=0;entryY=1;entryDx=0;entryDy=0;" edge="1" parent="N4B7eghxR8Ot4XVqMV-S-3" source="B70QrysTqTV6Nruh_P4p-85" target="B70QrysTqTV6Nruh_P4p-2">
          <mxGeometry relative="1" as="geometry">
            <Array as="points">
              <mxPoint x="-80" y="390" />
            </Array>
          </mxGeometry>
        </mxCell>
        <mxCell id="B70QrysTqTV6Nruh_P4p-85" value="&#xa;Atualiza &#39;current_master&#39; e Encerra Conexão&#xa;&#xa;" style="rounded=1;whiteSpace=wrap;html=1;" vertex="1" parent="N4B7eghxR8Ot4XVqMV-S-3">
          <mxGeometry x="104" y="630" width="120" height="60" as="geometry" />
        </mxCell>
        <mxCell id="N4B7eghxR8Ot4XVqMV-S-4" value="&lt;font style=&quot;color: light-dark(rgb(1, 244, 49), rgb(0, 255, 0));&quot;&gt;Master&lt;/font&gt;" style="swimlane;startSize=20;html=1;strokeColor=default;align=center;verticalAlign=middle;fontFamily=Helvetica;fontSize=12;fontColor=default;fontStyle=1;fillColor=default;" parent="N4B7eghxR8Ot4XVqMV-S-2" vertex="1">
          <mxGeometry x="310" y="80" width="280" height="820" as="geometry" />
        </mxCell>
        <mxCell id="B70QrysTqTV6Nruh_P4p-28" style="edgeStyle=none;curved=1;rounded=0;orthogonalLoop=1;jettySize=auto;html=1;exitX=0.5;exitY=1;exitDx=0;exitDy=0;entryX=0.5;entryY=0;entryDx=0;entryDy=0;fontSize=12;startSize=8;endSize=8;" edge="1" parent="N4B7eghxR8Ot4XVqMV-S-4" source="B70QrysTqTV6Nruh_P4p-12" target="B70QrysTqTV6Nruh_P4p-13">
          <mxGeometry relative="1" as="geometry" />
        </mxCell>
        <mxCell id="B70QrysTqTV6Nruh_P4p-12" value="Master Recebe {&quot;WORKER&quot;: &quot;ALIVE&quot;}" style="rounded=1;whiteSpace=wrap;html=1;" vertex="1" parent="N4B7eghxR8Ot4XVqMV-S-4">
          <mxGeometry x="80" y="30" width="120" height="60" as="geometry" />
        </mxCell>
        <mxCell id="B70QrysTqTV6Nruh_P4p-29" style="edgeStyle=none;curved=1;rounded=0;orthogonalLoop=1;jettySize=auto;html=1;fontSize=12;startSize=8;endSize=8;" edge="1" parent="N4B7eghxR8Ot4XVqMV-S-4" source="B70QrysTqTV6Nruh_P4p-13" target="B70QrysTqTV6Nruh_P4p-14">
          <mxGeometry relative="1" as="geometry" />
        </mxCell>
        <mxCell id="B70QrysTqTV6Nruh_P4p-13" value="Registra Worker em &#39;worker_status&#39;" style="rounded=1;whiteSpace=wrap;html=1;" vertex="1" parent="N4B7eghxR8Ot4XVqMV-S-4">
          <mxGeometry x="80" y="100" width="120" height="60" as="geometry" />
        </mxCell>
        <mxCell id="B70QrysTqTV6Nruh_P4p-30" style="edgeStyle=none;curved=1;rounded=0;orthogonalLoop=1;jettySize=auto;html=1;fontSize=12;startSize=8;endSize=8;" edge="1" parent="N4B7eghxR8Ot4XVqMV-S-4" source="B70QrysTqTV6Nruh_P4p-14" target="B70QrysTqTV6Nruh_P4p-17">
          <mxGeometry relative="1" as="geometry" />
        </mxCell>
        <mxCell id="B70QrysTqTV6Nruh_P4p-14" value="&#xa;Envia 1ª Tarefa: {&quot;TASK&quot;: &quot;QUERY&quot;}&#xa;&#xa;" style="rounded=1;whiteSpace=wrap;html=1;" vertex="1" parent="N4B7eghxR8Ot4XVqMV-S-4">
          <mxGeometry x="80" y="170" width="120" height="60" as="geometry" />
        </mxCell>
        <mxCell id="B70QrysTqTV6Nruh_P4p-31" style="edgeStyle=none;curved=1;rounded=0;orthogonalLoop=1;jettySize=auto;html=1;fontSize=12;startSize=8;endSize=8;" edge="1" parent="N4B7eghxR8Ot4XVqMV-S-4" source="B70QrysTqTV6Nruh_P4p-17" target="B70QrysTqTV6Nruh_P4p-18">
          <mxGeometry relative="1" as="geometry" />
        </mxCell>
        <mxCell id="B70QrysTqTV6Nruh_P4p-17" value="Worker Recebe Tarefa" style="rounded=1;whiteSpace=wrap;html=1;" vertex="1" parent="N4B7eghxR8Ot4XVqMV-S-4">
          <mxGeometry x="80" y="240" width="120" height="60" as="geometry" />
        </mxCell>
        <mxCell id="B70QrysTqTV6Nruh_P4p-18" value="TASK == &quot;QUERY&quot;?" style="rhombus;whiteSpace=wrap;html=1;" vertex="1" parent="N4B7eghxR8Ot4XVqMV-S-4">
          <mxGeometry x="100" y="320" width="80" height="80" as="geometry" />
        </mxCell>
        <mxCell id="B70QrysTqTV6Nruh_P4p-75" style="edgeStyle=none;curved=1;rounded=0;orthogonalLoop=1;jettySize=auto;html=1;fontSize=12;startSize=8;endSize=8;" edge="1" parent="N4B7eghxR8Ot4XVqMV-S-4" source="B70QrysTqTV6Nruh_P4p-24" target="B70QrysTqTV6Nruh_P4p-35">
          <mxGeometry relative="1" as="geometry" />
        </mxCell>
        <mxCell id="B70QrysTqTV6Nruh_P4p-24" value="Master Recebe Resultado e Atualiza &#39;last_seen&#39;" style="rounded=1;whiteSpace=wrap;html=1;" vertex="1" parent="N4B7eghxR8Ot4XVqMV-S-4">
          <mxGeometry x="80" y="410" width="120" height="60" as="geometry" />
        </mxCell>
        <mxCell id="B70QrysTqTV6Nruh_P4p-76" style="edgeStyle=none;curved=1;rounded=0;orthogonalLoop=1;jettySize=auto;html=1;fontSize=12;startSize=8;endSize=8;" edge="1" parent="N4B7eghxR8Ot4XVqMV-S-4" source="B70QrysTqTV6Nruh_P4p-35" target="B70QrysTqTV6Nruh_P4p-36">
          <mxGeometry relative="1" as="geometry" />
        </mxCell>
        <mxCell id="B70QrysTqTV6Nruh_P4p-35" value="Verifica &#39;redirect_queue&#39; por ordem de redirecionamento" style="rounded=1;whiteSpace=wrap;html=1;" vertex="1" parent="N4B7eghxR8Ot4XVqMV-S-4">
          <mxGeometry x="80" y="480" width="120" height="60" as="geometry" />
        </mxCell>
        <mxCell id="B70QrysTqTV6Nruh_P4p-77" style="edgeStyle=none;curved=1;rounded=0;orthogonalLoop=1;jettySize=auto;html=1;entryX=0.5;entryY=0;entryDx=0;entryDy=0;fontSize=12;startSize=8;endSize=8;" edge="1" parent="N4B7eghxR8Ot4XVqMV-S-4" source="B70QrysTqTV6Nruh_P4p-36" target="B70QrysTqTV6Nruh_P4p-74">
          <mxGeometry relative="1" as="geometry" />
        </mxCell>
        <mxCell id="B70QrysTqTV6Nruh_P4p-78" value="NÃO" style="edgeLabel;html=1;align=center;verticalAlign=middle;resizable=0;points=[];fontSize=12;" vertex="1" connectable="0" parent="B70QrysTqTV6Nruh_P4p-77">
          <mxGeometry x="-0.0265" y="1" relative="1" as="geometry">
            <mxPoint as="offset" />
          </mxGeometry>
        </mxCell>
        <mxCell id="B70QrysTqTV6Nruh_P4p-80" style="edgeStyle=none;curved=1;rounded=0;orthogonalLoop=1;jettySize=auto;html=1;entryX=0.5;entryY=0;entryDx=0;entryDy=0;fontSize=12;startSize=8;endSize=8;" edge="1" parent="N4B7eghxR8Ot4XVqMV-S-4" source="B70QrysTqTV6Nruh_P4p-36" target="B70QrysTqTV6Nruh_P4p-37">
          <mxGeometry relative="1" as="geometry" />
        </mxCell>
        <mxCell id="B70QrysTqTV6Nruh_P4p-81" value="SIM" style="edgeLabel;html=1;align=center;verticalAlign=middle;resizable=0;points=[];fontSize=12;" vertex="1" connectable="0" parent="B70QrysTqTV6Nruh_P4p-80">
          <mxGeometry x="-0.2245" relative="1" as="geometry">
            <mxPoint as="offset" />
          </mxGeometry>
        </mxCell>
        <mxCell id="B70QrysTqTV6Nruh_P4p-36" value="Redirecionamento Agendado?" style="rhombus;whiteSpace=wrap;html=1;" vertex="1" parent="N4B7eghxR8Ot4XVqMV-S-4">
          <mxGeometry x="75" y="550" width="130" height="80" as="geometry" />
        </mxCell>
        <mxCell id="B70QrysTqTV6Nruh_P4p-83" style="edgeStyle=none;curved=1;rounded=0;orthogonalLoop=1;jettySize=auto;html=1;fontSize=12;startSize=8;endSize=8;" edge="1" parent="N4B7eghxR8Ot4XVqMV-S-4" source="B70QrysTqTV6Nruh_P4p-37" target="B70QrysTqTV6Nruh_P4p-82">
          <mxGeometry relative="1" as="geometry" />
        </mxCell>
        <mxCell id="B70QrysTqTV6Nruh_P4p-37" value="Envia Comando {&quot;TASK&quot;: &quot;REDIRECT&quot;, ...}" style="rounded=1;whiteSpace=wrap;html=1;" vertex="1" parent="N4B7eghxR8Ot4XVqMV-S-4">
          <mxGeometry x="10" y="670" width="120" height="60" as="geometry" />
        </mxCell>
        <mxCell id="B70QrysTqTV6Nruh_P4p-79" style="edgeStyle=none;curved=1;rounded=0;orthogonalLoop=1;jettySize=auto;html=1;entryX=1;entryY=0.5;entryDx=0;entryDy=0;fontSize=12;startSize=8;endSize=8;" edge="1" parent="N4B7eghxR8Ot4XVqMV-S-4" source="B70QrysTqTV6Nruh_P4p-74" target="B70QrysTqTV6Nruh_P4p-17">
          <mxGeometry relative="1" as="geometry">
            <Array as="points">
              <mxPoint x="310" y="470" />
            </Array>
          </mxGeometry>
        </mxCell>
        <mxCell id="B70QrysTqTV6Nruh_P4p-74" value="Envia Próxima Tarefa: {&quot;TASK&quot;: &quot;QUERY&quot;}" style="rounded=1;whiteSpace=wrap;html=1;" vertex="1" parent="N4B7eghxR8Ot4XVqMV-S-4">
          <mxGeometry x="150" y="670" width="120" height="60" as="geometry" />
        </mxCell>
        <mxCell id="B70QrysTqTV6Nruh_P4p-82" value="Remove Ordem da Fila e Encerra Conexão" style="rounded=1;whiteSpace=wrap;html=1;" vertex="1" parent="N4B7eghxR8Ot4XVqMV-S-4">
          <mxGeometry x="10" y="740" width="120" height="60" as="geometry" />
        </mxCell>
        <mxCell id="B70QrysTqTV6Nruh_P4p-16" style="edgeStyle=none;curved=1;rounded=0;orthogonalLoop=1;jettySize=auto;html=1;entryX=0;entryY=0.5;entryDx=0;entryDy=0;fontSize=12;startSize=8;endSize=8;" edge="1" parent="N4B7eghxR8Ot4XVqMV-S-2" source="B70QrysTqTV6Nruh_P4p-11" target="B70QrysTqTV6Nruh_P4p-12">
          <mxGeometry relative="1" as="geometry" />
        </mxCell>
        <mxCell id="B70QrysTqTV6Nruh_P4p-22" style="edgeStyle=none;curved=1;rounded=0;orthogonalLoop=1;jettySize=auto;html=1;entryX=1;entryY=0.5;entryDx=0;entryDy=0;fontSize=12;startSize=8;endSize=8;" edge="1" parent="N4B7eghxR8Ot4XVqMV-S-2" source="B70QrysTqTV6Nruh_P4p-18" target="B70QrysTqTV6Nruh_P4p-19">
          <mxGeometry relative="1" as="geometry" />
        </mxCell>
        <mxCell id="B70QrysTqTV6Nruh_P4p-23" value="SIM" style="edgeLabel;html=1;align=center;verticalAlign=middle;resizable=0;points=[];fontSize=12;" vertex="1" connectable="0" parent="B70QrysTqTV6Nruh_P4p-22">
          <mxGeometry x="-0.1441" y="-1" relative="1" as="geometry">
            <mxPoint as="offset" />
          </mxGeometry>
        </mxCell>
        <mxCell id="B70QrysTqTV6Nruh_P4p-33" style="edgeStyle=none;curved=1;rounded=0;orthogonalLoop=1;jettySize=auto;html=1;entryX=0;entryY=0.5;entryDx=0;entryDy=0;fontSize=12;startSize=8;endSize=8;" edge="1" parent="N4B7eghxR8Ot4XVqMV-S-2" source="B70QrysTqTV6Nruh_P4p-20" target="B70QrysTqTV6Nruh_P4p-24">
          <mxGeometry relative="1" as="geometry" />
        </mxCell>
      </root>
    </mxGraphModel>
  </diagram>
</mxfile>
